<svg xmlns="http://www.w3.org/2000/svg" xmlns:xlink="http://www.w3.org/1999/xlink" width="682.758" height="699.03" viewBox="0 0 682.758 699.03">
  <defs>
    <clipPath id="clip-path">
      <path id="Path_2746" data-name="Path 2746" d="M220.8,208.1s-3.678,91.08-2.888,106.292S215.54,422,215.54,422a12.994,12.994,0,0,0,9.195,3.4c6.079,0,7.6-2.356,7.6-2.356l32.3-169.211s4.985,66.14,11.018,92.706a471.525,471.525,0,0,0,13.328,47.113s1.109,2.812,8.191,1.413c6.17-1.216,8.4-8.4,8.4-8.4s-1.307-66.87-1.049-108.131-1.049-79.788-1.049-79.788-27.827,9.119-47.766,11.55a94.788,94.788,0,0,1-34.909-2.2Z" transform="translate(-215.54 -198.75)" fill="#263238" stroke="#263238" stroke-linecap="round" stroke-linejoin="round" stroke-width="1"/>
    </clipPath>
    <clipPath id="clip-path-2">
      <path id="Path_2770" data-name="Path 2770" d="M236.258,129.712s6.626,4.1,9.787.638,1.353-4.255,2.614-6.778,3.754-1.125,4.058,3.617-3.83,5.046,1.216,5.684,5.547,2.173,17.553-3.207,17.188-20.471,17.188-28.693-17.371-21.155-27.781-22.8-26.854,4.818-31.277,16.186.638,27.158.957,29.058S230.894,128.785,236.258,129.712Z" transform="translate(-227.813 -77.924)" fill="#263238"/>
    </clipPath>
  </defs>
  <g id="Group_8237" data-name="Group 8237" transform="translate(-1112 -238.484)">
    <g id="background-simple--inject-2" transform="translate(1112 238.484)">
      <path id="Path_2729" data-name="Path 2729" d="M581.289,61.674S505.5-.226,406.927,27.221,267.108,139.577,210.558,197.951c-29.6,30.578-73.344,41.854-108.511,65.35C-10.34,338.575,6.241,507.74,93,571.57c75.076,55.244,168.891,61.019,290.959,20.274S593.4,526.616,669.116,409.913,674.648,145.671,581.289,61.674Z" transform="translate(-22.818 -20.201)" fill="#fff"/>
      <path id="Path_2730" data-name="Path 2730" d="M581.289,61.674S505.5-.226,406.927,27.221,267.108,139.577,210.558,197.951c-29.6,30.578-73.344,41.854-108.511,65.35C-10.34,338.575,6.241,507.74,93,571.57c75.076,55.244,168.891,61.019,290.959,20.274S593.4,526.616,669.116,409.913,674.648,145.671,581.289,61.674Z" transform="translate(-22.818 -20.201)" opacity="0"/>
    </g>
    <g id="Labyrinth--inject-2" transform="translate(1113.995 527.497)">
      <path id="Path_2731" data-name="Path 2731" d="M364.5,210.37c-103.146,0-199.591,27.721-264.591,75.988l10.866,5.319c60.867-45.259,150.457-71.657,246.719-72.949v24.012c-154.758,2.386-279.5,78.906-279.5,172.676,0,30.259,13.024,58.724,35.836,83.481L79.373,511.466c-26.565-28.648-41.246-61.535-41.246-96.049,0-33.192,13.982-66,40.426-94.864L66.3,316.48C38.72,346.587,24.13,380.8,24.13,415.417c0,41.87,20.821,82.067,60.213,116.46,38.48,33.526,91.931,59.18,154.575,74.164l5.167-7.842C176.851,582.15,122.428,553.943,86.44,518.746l34.468-12.584C171.486,555.25,261.745,588,364.5,588c157.964,0,286.491-77.508,286.491-172.585,0-59.134-49.408-113.511-132.22-145.442l-7.6,7.1c78.724,30.4,125.73,82.067,125.73,138.3,0,59.271-52.432,111.323-130.837,140.183L488.1,538.366c32.477-11.869,60.259-28.511,80.775-49.058l-11.991-4.347C515.85,525.995,443.9,550.585,364.405,550.585c-69.134,0-133.375-18.769-176.293-51.49l-10.988,5.228a241.229,241.229,0,0,0,62.614,33.587l-17.28,17.553C144.252,526.588,91.972,474.612,91.972,415.417c0-90.517,122.25-164.135,272.509-164.135a426.782,426.782,0,0,1,112.341,14.529l5.775-7.6a445.867,445.867,0,0,0-111.156-15.2V218.926c176.809,2.188,319.409,89.484,319.409,196.49,0,108.4-146.4,196.6-326.354,196.6a541.558,541.558,0,0,1-65.623-4.027l-2.8,8.252a562.8,562.8,0,0,0,68.389,4.149c187.66,0,340.427-91.976,340.427-205.032S552.157,210.37,364.5,210.37ZM251.9,542.1c34.119,11.018,72.584,16.961,112.615,16.961s77.827-5.79,111.49-16.429l18.009,17.249c-38.541,12.6-82.66,19.757-129.514,19.757s-91.262-7.2-129.909-19.878Z" transform="translate(-24.131 -210.37)" fill="#64b4d2"/>
      <path id="Path_2732" data-name="Path 2732" d="M550.362,448.877c11.778-17.295,17.736-35.623,17.736-54.453,0-79.21-106.976-143.663-238.451-143.663-55.943,0-110.335,11.915-153.132,33.526l9,6.459c40.289-20.35,91.475-31.55,144.135-31.55a348.026,348.026,0,0,1,101.824,14.742l-19.438,24.955a275.894,275.894,0,0,0-82.386-12.158,296.732,296.732,0,0,0-34.043,1.945l2.644,8.283a274.978,274.978,0,0,1,31.4-1.763c89.529,0,162.478,43.146,164.667,96.748H447.306c-.775-13.678-8.009-26.809-21.034-38.07L414.8,358.709c12.158,10.5,18.587,22.8,18.587,35.715,0,32.341-41.87,59.712-95.32,62.31l1.109,8.4a179.336,179.336,0,0,0,42.553-7.158L406.151,482.3a254.608,254.608,0,0,1-76.566,11.4c-57.356,0-107.9-17.751-137.463-44.605l41.125-13.83c12.416,10.638,29.7,19.225,50.5,24.529l5.456-7.766q-5.243-1.353-10.137-3.04l20.912-19.6a101.22,101.22,0,0,0,29.605,4.286,106.928,106.928,0,0,0,15.365-1.094l-3.283-8.192a83.437,83.437,0,0,1-12.158.866c-28.268,0-51.246-13.845-51.246-30.866s23.116-30.79,51.383-30.79,51.231,13.86,51.231,30.882c0,7.31-4.331,14.423-12.158,19.985l10.638,5.456c10.015-7.082,15.532-16.125,15.532-25.441,0-21.672-29.255-39.3-65.228-39.3a101.232,101.232,0,0,0-29.955,4.392l-21.2-19.529a159.851,159.851,0,0,1,51.14-8.116c22.082,0,43.161,4.119,60.958,11.93l8.237-6.824c-20.2-8.86-44.073-13.541-69.195-13.541-39.924,0-76.809,12.052-98.663,32.2l11.717,4.559a92.614,92.614,0,0,1,24.134-15.608l21.186,19.5c-14.407,7.219-23.617,18.085-23.617,30.243s9.331,23.176,23.936,30.4L267.4,444.439c-25.836-11.626-41.5-30.015-41.5-50.015a39.514,39.514,0,0,1,3.131-15.319l-13.5-2.052a44.908,44.908,0,0,0-3.556,17.371c0,12.006,5.015,23.511,14.058,33.632L185,441.855c-12.8-14.1-20.076-30.259-20.076-47.432,0-37.994,36.7-73.1,93.526-89.545l-6.079-7.6c-59.529,17.234-98.694,53.389-101.308,92.918H105.314c1.413-28.146,16.945-54.788,45.2-77.28l-11.155-5.091c-31.52,25.091-48.177,55.031-48.177,86.627,0,22.386,8.313,43.83,24.711,63.739l12.538-3.739c-14.392-17.493-22.173-36.231-23.146-55.791h45.76c3.693,57.432,82.371,103.481,178.6,103.481,98.572,0,178.77-48.313,178.77-107.691,0-38.48-33.678-72.28-84.2-91.338L443.8,278.025c65.973,23.587,110.3,66.87,110.3,116.4,0,17.736-5.608,34.955-16.717,51.247ZM418.294,478.026,393.9,453.71c29.59-11.733,49.909-31.246,53.04-53.359h47.113C490.878,432.98,461.425,461.369,418.294,478.026Z" transform="translate(10.72 -189.377)" fill="#64b4d2"/>
    </g>
    <g id="Character--inject-2" transform="translate(1297.379 326.21)">
      <path id="Path_2733" data-name="Path 2733" d="M347.843,350.136c-.137-.441-.578-1.809-9.119-1.14L321.6,350.288c-1.976-1.52-25.076-18.906-25.152-18.739-.851-.76-13.556-11.717-17.493-14.863a6.307,6.307,0,0,0,3.739-1.337c.532-.623,2.781-3.5,3.176-4.012,7.948-5.03,23.04-14.559,23.982-15.061,2.614-1.4,2.933-2.69,2.736-3.526-.289-1.292-1.93-2.052-4.559-2.143-1.611,0-7.4-1.125-14.1-2.34-11.657-2.128-27.629-5.03-35.183-5.228a112.466,112.466,0,0,0-23.526,2.264c-3.389.456-7.8,1.155-12.8,2.1a22.1,22.1,0,0,0-3.754-6.429c2.067-2.234,1.93-4.225.669-5.319-.912-.79-11.5-2.067-12.036-1.079-3.784,0-8.024.289-12.052.638.5-.4-1.155-.973-2.933.273-2.568.274-4.97.593-7.021.957-10.9,1.915-25.73,6.991-27.128,10.638-.486,1.277.334,2.416,1.657,3.374-1.672.5-.38,1.687,1.717,1.049a15.037,15.037,0,0,0,1.413.669c-.775.167,1.033,1.337,2.523.988h0a1.261,1.261,0,0,0-.578,1.125c.106,2.249,7.052,3.131,7.112,3.131a11.4,11.4,0,0,0,1.429.076,18.692,18.692,0,0,0,5.167-.806c.927.3,1.885.593,2.857.882a14.475,14.475,0,0,0-1.885,1.641c-3.739,1.52-8.647,3.617-13.1,5.654h-.213a172.892,172.892,0,0,0-19.939,9.514,2.583,2.583,0,0,0-1.52,2.538c.365,3.678,10.289,8.967,29.468,15.73l.3.106a30.288,30.288,0,0,0,10.182,1.824,29.363,29.363,0,0,0,6.459-.745c5,5.289,19.559,27.356,23.693,30.213,2.371,1.657,12.675,23.192,18.648,29.134-.669.547.365,1.672,1.079,1.079,1.429,1.52,4.468,5.654,5.182,5.228l.912.927c-.5.243.471,1.52,1.125,1.14l3.04,3.04c-.912,1.824-2.234,5.122-.821,6.672a7.067,7.067,0,0,0,5.486,2.1,19.134,19.134,0,0,0,7.067-1.626c5.319-2.188,7.751-5.182,7.234-8.951a5.043,5.043,0,0,0-.456-1.52.745.745,0,0,0,.152-.638l-5.608-20.289c.593-1.383-9.954-45.38-9.954-45.38a.79.79,0,0,0,.456-.274c5.882,3.617,21.748,13.1,32.417,17.34-.456.5-.927,1-1.429,1.52a.76.76,0,0,0,0,1.079.729.729,0,0,0,1.064,0c.653-.638,1.277-1.307,1.884-1.991a44.072,44.072,0,0,0,14.149,1.672c5.821,1.733,9.848,2.751,9.939,2.766a4.952,4.952,0,0,0,1.14,0,15.316,15.316,0,0,0,2.827.228,48.872,48.872,0,0,0,7.9-.866l.7-.106a33.622,33.622,0,0,1,4.863-.289,66.873,66.873,0,0,0,8.344-.5c6.292-.806,12.842-2.705,14.787-3.906C347.98,351.108,347.949,350.47,347.843,350.136Zm-64.028-52.25-7.6,11.976-3.572,1.869-.35-.274a1.658,1.658,0,0,0,0-.38c-.456-1.216-8.3-10.289-13.951-16.292h.805Z" transform="translate(-144.796 24.101)" opacity="0.3"/>
      <path id="Path_2734" data-name="Path 2734" d="M280.57,199.72l-9.438,7.872s-1.839,2.888-.532,4.468a25.666,25.666,0,0,1,2.629,4.195s1.52,3.146,3.146,3.678,3.419.79,4.468-1.049,6.292-11.55,6.292-11.55Z" transform="translate(-79.651 -14.618)" fill="#fff" stroke="#263238" stroke-linecap="round" stroke-linejoin="round" stroke-width="1"/>
      <path id="Path_2735" data-name="Path 2735" d="M218.651,345.559s-7.188,15.608-7.508,22.477,1.261,14.058,9.119,9.681,11.17-15.578,12.812-22.8a39.038,39.038,0,0,0,1.246-11.231Z" transform="translate(-110.331 60.212)" fill="#fff" stroke="#263238" stroke-linecap="round" stroke-linejoin="round" stroke-width="1"/>
      <path id="Path_2736" data-name="Path 2736" d="M278.431,321.694s11.55,6.55,17.173,9.681,7.492,7.8,5,10.3-9.362,4.058-14.985,2.173-8.115-6.55-11.246-7.173-9.681-1.246-10.638-9.681S278.431,321.694,278.431,321.694Z" transform="translate(-82.998 48.484)" fill="#fff" stroke="#263238" stroke-linecap="round" stroke-linejoin="round" stroke-width="1"/>
      <path id="Path_2737" data-name="Path 2737" d="M220.8,208.1s-3.678,91.08-2.888,106.292S215.54,422,215.54,422a12.994,12.994,0,0,0,9.195,3.4c6.079,0,7.6-2.356,7.6-2.356l32.3-169.211s4.985,66.14,11.018,92.706a471.525,471.525,0,0,0,13.328,47.113s1.109,2.812,8.191,1.413c6.17-1.216,8.4-8.4,8.4-8.4s-1.307-66.87-1.049-108.131-1.049-79.788-1.049-79.788-27.827,9.119-47.766,11.55a94.788,94.788,0,0,1-34.909-2.2Z" transform="translate(-108.026 -15.123)" fill="#263238"/>
      <g id="Group_8028" data-name="Group 8028" transform="translate(107.514 183.627)" clip-path="url(#clip-path)">
        <path id="Path_2738" data-name="Path 2738" d="M259.895,263.76a348.189,348.189,0,0,1-28.875,58.754,271.717,271.717,0,0,1-17.249,25.2" transform="translate(-216.46 -164.96)" fill="none" stroke="#8a8a8a" stroke-linecap="round" stroke-linejoin="round" stroke-width="1"/>
        <path id="Path_2739" data-name="Path 2739" d="M239.211,309a178.381,178.381,0,0,1-11.231,18.648,88.147,88.147,0,0,1-14.24,16.459" transform="translate(-216.476 -141.446)" fill="none" stroke="#8a8a8a" stroke-linecap="round" stroke-linejoin="round" stroke-width="1"/>
        <path id="Path_2740" data-name="Path 2740" d="M242.637,288.34a228.276,228.276,0,0,1-9.787,24.316" transform="translate(-206.543 -152.184)" fill="none" stroke="#8a8a8a" stroke-linecap="round" stroke-linejoin="round" stroke-width="1"/>
        <path id="Path_2741" data-name="Path 2741" d="M287.141,247.52S270.424,298.888,252.46,326.9" transform="translate(-196.35 -173.401)" fill="none" stroke="#8a8a8a" stroke-linecap="round" stroke-linejoin="round" stroke-width="1"/>
        <path id="Path_2742" data-name="Path 2742" d="M282.912,258.05c-4.772,30.669-10.152,61.611-23.6,89.666" transform="translate(-192.79 -167.928)" fill="none" stroke="#8a8a8a" stroke-linecap="round" stroke-linejoin="round" stroke-width="1"/>
        <path id="Path_2743" data-name="Path 2743" d="M247.63,243.744l3.343-8.009L260.3,230.4" transform="translate(-198.861 -182.299)" fill="none" stroke="#8a8a8a" stroke-linecap="round" stroke-linejoin="round" stroke-width="1"/>
        <path id="Path_2744" data-name="Path 2744" d="M299.5,196.56s-10.942,10.532-38.3,13.465-39.97,0-39.97,0-3.45,1.657-1.307,4.195c0,0-1.641,2.538,7.188,4.65a84.08,84.08,0,0,0,13.328,2.006l-.274-4.559,5.046-.851v5.593a101.828,101.828,0,0,0,13.891-.684v-4.909l3.784-.41-.3,4.863,1.52-.243a114.573,114.573,0,0,0,20.623-5.289v-7.325l5.471-.426-.5,5.76a32.752,32.752,0,0,0,9.331-5.76A7.158,7.158,0,0,0,299.5,196.56Z" transform="translate(-213.623 -199.888)" fill="#969696"/>
        <path id="Path_2745" data-name="Path 2745" d="M235.157,325.21a256.492,256.492,0,0,1-21.277,18.237" transform="translate(-216.403 -133.02)" fill="none" stroke="#8a8a8a" stroke-linecap="round" stroke-linejoin="round" stroke-width="1"/>
      </g>
      <path id="Path_2747" data-name="Path 2747" d="M220.8,208.1s-3.678,91.08-2.888,106.292S215.54,422,215.54,422a12.994,12.994,0,0,0,9.195,3.4c6.079,0,7.6-2.356,7.6-2.356l32.3-169.211s4.985,66.14,11.018,92.706a471.525,471.525,0,0,0,13.328,47.113s1.109,2.812,8.191,1.413c6.17-1.216,8.4-8.4,8.4-8.4s-1.307-66.87-1.049-108.131-1.049-79.788-1.049-79.788-27.827,9.119-47.766,11.55a94.788,94.788,0,0,1-34.909-2.2Z" transform="translate(-108.026 -15.123)" fill="none" stroke="#263238" stroke-linecap="round" stroke-linejoin="round" stroke-width="1"/>
      <path id="Path_2748" data-name="Path 2748" d="M269.77,124.42a30.061,30.061,0,0,1,21,9.711c9.119,9.985,28.875,58.8,32.28,62.736s2.143,11.611-2.66,15.654c-1.52,1.322-33.04,33.952-33.04,33.952l-6.565-7.6,18.648-38.845-22.31-38.252" transform="translate(-79.839 -53.757)" fill="#8656e9" stroke="#263238" stroke-linecap="round" stroke-linejoin="round" stroke-width="1"/>
      <path id="Path_2749" data-name="Path 2749" d="M276.36,149.058l.836-6.778,2.538,19.742-3.1-3.663Z" transform="translate(-76.414 -44.474)" fill="#263238" stroke="#263238" stroke-linecap="round" stroke-linejoin="round" stroke-width="1"/>
      <path id="Path_2750" data-name="Path 2750" d="M299.928,180.011c-6.626.365-10.638-5.881-10.638-5.881a12.158,12.158,0,0,0,11.383,8.465" transform="translate(-69.694 -27.919)" fill="none" stroke="#263238" stroke-linecap="round" stroke-linejoin="round" stroke-width="1"/>
      <path id="Path_2751" data-name="Path 2751" d="M309.814,161.109c-.578,23.389-3.374,73.724-4.088,77.949-.79,4.726-6.292,7.6-28.085,14.179s-51.961,4.195-54.058-.532-6.307-27.812-6.307-38.845-10.486-53.8-1.307-63.511,34.377-22.8,34.377-22.8c20.213-7.888,42.265-5,51.186-1.52a14.041,14.041,0,0,1,3.86,2.128" transform="translate(-109.761 -54.747)" fill="#8656e9" stroke="#263238" stroke-linecap="round" stroke-linejoin="round" stroke-width="1"/>
      <path id="Path_2752" data-name="Path 2752" d="M242.66,147.644,251.323,155l-6.049,75.061,14.438,14.97,9.711-21.793-13.116-69.286,6.292-10.243-9.97-9.438Z" transform="translate(-93.93 -48.637)" fill="#fff" stroke="#263238" stroke-linecap="round" stroke-linejoin="round" stroke-width="1"/>
      <path id="Path_2753" data-name="Path 2753" d="M265.9,183.65l-21.094,15.578-.426,5.167,4.8,4.97,18.936-13.982Z" transform="translate(-93.036 -22.971)" fill="#263238"/>
      <path id="Path_2754" data-name="Path 2754" d="M256.393,160.013l-2.219-11.733-5.684,4.179-1.14,14.225Z" transform="translate(-91.492 -41.355)" fill="#263238"/>
      <path id="Path_2755" data-name="Path 2755" d="M260.159,165.96l-13.389,9.894-1.14,14.225,16.748-12.371Z" transform="translate(-92.386 -32.166)" fill="#263238"/>
      <path id="Path_2756" data-name="Path 2756" d="M239.9,123.4s-7.6,8.146-7.6,10.76,7.082,22.584,8.921,24.423,16.261-9.711,16.261-9.711,15.2,8.921,16.277,7.6-1.307-15.745-4.195-23.085S251.191,116.058,239.9,123.4Z" transform="translate(-99.315 -55.623)" fill="#8656e9" stroke="#263238" stroke-linecap="round" stroke-linejoin="round" stroke-width="1"/>
      <path id="Path_2757" data-name="Path 2757" d="M239.55,131.877s7.872,20.213,15.745,21.277,9.453-16.261,8.921-21.277S246.313,119.81,239.55,131.877Z" transform="translate(-95.547 -53.342)" fill="#263238" stroke="#263238" stroke-linecap="round" stroke-linejoin="round" stroke-width="1"/>
      <path id="Path_2758" data-name="Path 2758" d="M280.324,105.344s-1.261,22.113-3.784,31.581-5.684,19.575-11.049,20.851-16.717-4.119-22.113-9.119-11.049-30-11.049-37.265S252.224,97.806,263.272,97.5A21.368,21.368,0,0,1,280.324,105.344Z" transform="translate(-99.299 -67.751)" fill="#fff" stroke="#263238" stroke-linecap="round" stroke-linejoin="round" stroke-width="1"/>
      <path id="Path_2759" data-name="Path 2759" d="M257.334,117.23v12.325l-4.894.729" transform="translate(-88.847 -57.494)" fill="none" stroke="#263238" stroke-linecap="round" stroke-linejoin="round" stroke-width="1"/>
      <path id="Path_2760" data-name="Path 2760" d="M244.09,117.23s2.9,3.268,11.246.912" transform="translate(-93.187 -57.494)" fill="none" stroke="#263238" stroke-linecap="round" stroke-linejoin="round" stroke-width="1"/>
      <path id="Path_2761" data-name="Path 2761" d="M256.38,117.916s3.435,1.094,7.067-2.356" transform="translate(-86.799 -58.362)" fill="none" stroke="#263238" stroke-linecap="round" stroke-linejoin="round" stroke-width="1"/>
      <path id="Path_2762" data-name="Path 2762" d="M255.9,117.914s1.52-4.027,8.085-5.3" transform="translate(-87.048 -59.895)" fill="none" stroke="#263238" stroke-linecap="round" stroke-linejoin="round" stroke-width="1"/>
      <path id="Path_2763" data-name="Path 2763" d="M256.278,117.888A12.994,12.994,0,0,0,244.12,114.7" transform="translate(-93.171 -59.018)" fill="none" stroke="#263238" stroke-linecap="round" stroke-linejoin="round" stroke-width="1"/>
      <line id="Line_272" data-name="Line 272" y1="0.851" x2="4.894" transform="translate(163.32 77.791)" fill="none" stroke="#263238" stroke-linecap="round" stroke-linejoin="round" stroke-width="1"/>
      <path id="Path_2764" data-name="Path 2764" d="M246,118.76a5.79,5.79,0,0,0,5.319,0" transform="translate(-92.194 -56.699)" fill="none" stroke="#263238" stroke-linecap="round" stroke-linejoin="round" stroke-width="1"/>
      <path id="Path_2765" data-name="Path 2765" d="M256.88,118.232a5.745,5.745,0,0,0,5.152-1.292" transform="translate(-86.539 -57.645)" fill="none" stroke="#263238" stroke-linecap="round" stroke-linejoin="round" stroke-width="1"/>
      <path id="Path_2766" data-name="Path 2766" d="M236.258,129.712s6.626,4.1,9.787.638,1.353-4.255,2.614-6.778,3.754-1.125,4.058,3.617-3.83,5.046,1.216,5.684,5.547,2.173,17.553-3.207,17.188-20.471,17.188-28.693-17.371-21.155-27.781-22.8-26.854,4.818-31.277,16.186.638,27.158.957,29.058S230.894,128.785,236.258,129.712Z" transform="translate(-101.647 -77.924)" fill="#263238"/>
      <g id="Group_8029" data-name="Group 8029" transform="translate(126.166 0)" clip-path="url(#clip-path-2)">
        <path id="Path_2767" data-name="Path 2767" d="M275.365,92c-7.477,9.331-21.763,19.119-48.815,18.784" transform="translate(-228.47 -70.607)" fill="none" stroke="#8a8a8a" stroke-linecap="round" stroke-linejoin="round" stroke-width="1"/>
        <path id="Path_2768" data-name="Path 2768" d="M265.362,81.17A35.426,35.426,0,0,1,261,92.462" transform="translate(-210.564 -76.236)" fill="none" stroke="#8a8a8a" stroke-linecap="round" stroke-linejoin="round" stroke-width="1"/>
        <path id="Path_2769" data-name="Path 2769" d="M273.292,77.66S252.608,107.052,223.93,111" transform="translate(-229.831 -78.061)" fill="none" stroke="#8a8a8a" stroke-linecap="round" stroke-linejoin="round" stroke-width="1"/>
      </g>
      <path id="Path_2771" data-name="Path 2771" d="M240.555,118.09s-3.45-10.988-8.982-11.109-2.386,11.52,0,15.5a4.894,4.894,0,0,0,6.413,1.976" transform="translate(-101.293 -62.822)" fill="#fff" stroke="#263238" stroke-linecap="round" stroke-linejoin="round" stroke-width="1"/>
      <path id="Path_2772" data-name="Path 2772" d="M231.109,115.233s-1.277-5.319,1.277-4.255,3.83,4.878,3.83,4.878-2.128-.213-1.915,1.064S236,118.2,236,118.2" transform="translate(-100.1 -60.817)" fill="none" stroke="#263238" stroke-linecap="round" stroke-linejoin="round" stroke-width="1"/>
      <path id="Path_2773" data-name="Path 2773" d="M231.829,135.965a125.7,125.7,0,0,0-24.407,17.584c-10.243,9.985,4.985,71.657,6.824,79.271,2.66,10.988,6.565,16,12.067,15.745s24.149-32.538,29.924-46.459a193.242,193.242,0,0,0,9.119-30.973s7.356-2.888,8.663-5.5a33.238,33.238,0,0,0,2.1-5.517s1.322,3.936,3.678,2.888,3.419-7.082,3.936-11.292-10.228-7.872-10.228-7.872,1.307-5.5,4.453-6.292,6.824-3.678,5.775-5.258-9.97,3.951-9.97,3.951-7.082,11.018-9.711,16c-1.717,3.267-5.9,12.356-8.587,18.237a61.221,61.221,0,0,1-5.912,10.243l-12.8,17.964s-.517-32.28-.517-33.6" transform="translate(-114.072 -49.815)" fill="#8656e9" stroke="#263238" stroke-linecap="round" stroke-linejoin="round" stroke-width="1"/>
      <line id="Line_273" data-name="Line 273" y1="11.277" x2="4.514" transform="translate(122.651 113.885)" fill="none" stroke="#263238" stroke-linecap="round" stroke-linejoin="round" stroke-width="1"/>
      <path id="Path_2774" data-name="Path 2774" d="M215.808,196.179c0-3.04,16.717-20.289,16.717-20.289s-18.42,11.824-20.4,15.2" transform="translate(-109.799 -27.004)" fill="none" stroke="#263238" stroke-linecap="round" stroke-linejoin="round" stroke-width="1"/>
      <path id="Path_2775" data-name="Path 2775" d="M256.192,165.676a33.243,33.243,0,0,0,2.1-5.517s1.322,3.936,3.678,2.888,3.419-7.082,3.936-11.292-9.438-8.131-9.438-8.131,1.52-4.726,3.663-6.079c2.766-1.717,6.824-3.678,5.775-5.258-.593-.9-3.754,0-6.353.942a9.879,9.879,0,0,0-5.35,4.559c-2.28,4.058-6.17,11.064-7.979,14.483-1.52,3.04-5.228,10.9-7.9,16.717,1.155,2.006,3.587,4.407,8.647,4.833.365-1.687.562-2.675.562-2.675S254.885,168.29,256.192,165.676Z" transform="translate(-96.186 -49.86)" fill="#fff" stroke="#263238" stroke-linecap="round" stroke-linejoin="round" stroke-width="1"/>
      <path id="Path_2776" data-name="Path 2776" d="M249.91,145.84a81.435,81.435,0,0,1,7.872,3.678,1.717,1.717,0,0,1,.79,2.356" transform="translate(-90.162 -42.623)" fill="#fff" stroke="#263238" stroke-linecap="round" stroke-linejoin="round" stroke-width="1"/>
      <path id="Path_2777" data-name="Path 2777" d="M249.57,142.56s8.921,4.195,10.228,5.5" transform="translate(-90.339 -44.328)" fill="#fff" stroke="#263238" stroke-linecap="round" stroke-linejoin="round" stroke-width="1"/>
    </g>
  </g>
</svg>
