<svg xmlns="http://www.w3.org/2000/svg" width="719.064" height="649.12" viewBox="0 0 719.064 649.12"><defs><style>.a{fill:#8d3ddc;}.b{opacity:0.56;}.c,.f{fill:none;}.c{stroke:#fff;}.c,.d,.e,.f,.i,.j{stroke-linecap:round;stroke-linejoin:round;}.d,.h{fill:#fff;}.d,.e,.f,.i,.j{stroke:#263238;}.e{fill:#263238;}.g,.j{fill:#8167f2;}.h{opacity:0.5;}.i{fill:#8a51e4;}</style></defs><g transform="translate(-43.61 -71.19)"><g transform="translate(43.61 71.19)"><path class="a" d="M117.094,470.084s213.647-106.145,257.184-121.11S702.316,478.245,702.316,478.245s28.572-5.446,53.072-61.233S741.781,256.437,653.333,222.418C586.842,196.836,582.564,112.2,483.24,82.255s-186.432,6.872-216.362,39.517S217.809,189.757,155.2,222.418,43.61,294.338,43.61,354.352C43.61,429.262,117.094,470.084,117.094,470.084Z" transform="translate(-43.61 -71.19)"/><path class="b" d="M117.094,470.084s213.647-106.145,257.184-121.11S702.316,478.245,702.316,478.245s28.572-5.446,53.072-61.233S741.781,256.437,653.333,222.418C586.842,196.836,582.564,112.2,483.24,82.255s-186.432,6.872-216.362,39.517S217.809,189.757,155.2,222.418,43.61,294.338,43.61,354.352C43.61,429.262,117.094,470.084,117.094,470.084Z" transform="translate(-43.61 -71.19)"/></g><g transform="translate(69.596 88.582)"><path class="a" d="M342.823,163.922l-9.312,9.81a24.414,24.414,0,0,0-6.374,20.789c1.186,7.405,3.161,15.841,6.22,18.367,3.608,3.024,14.415,3.436,21.975,3.247a24.294,24.294,0,0,0,13.745-4.536l14.707-10.5A24.363,24.363,0,0,0,393.4,176l-1.478-6.666a24.431,24.431,0,0,0-14.295-17.181h0a24.363,24.363,0,0,0-24.809,3.436l-7.611,6.168A25.281,25.281,0,0,0,342.823,163.922Z" transform="translate(133.772 -31.839)"/><path class="a" d="M154.975,248.639l11.271,7.491a24.4,24.4,0,0,0,21.476,2.732c7.1-2.44,15.068-5.842,17.044-9.278,2.354-4.089.859-14.793-.584-22.215a24.431,24.431,0,0,0-6.872-12.714l-12.886-12.68a24.346,24.346,0,0,0-26.373-5.154l-6.305,2.612a24.26,24.26,0,0,0-14.432,17.009h0a24.346,24.346,0,0,0,7.714,23.847l7.371,6.443a27.2,27.2,0,0,0,2.577,1.907Z" transform="translate(-2.759 0.31)"/><path class="a" d="M204.142,168.468s-11.2,0-11.2,5.893.584,10.618,4.123,11.2a13.333,13.333,0,0,0,3.127,0A12.027,12.027,0,0,0,211.2,174.137a3.042,3.042,0,0,0,0-.378C211.221,171.406,208.266,167.282,204.142,168.468Z" transform="translate(37.639 -18.877)"/><path class="a" d="M342.271,215.962s-18.281,0-18.281,9.621.962,17.319,6.735,18.281a21.819,21.819,0,0,0,5.154,0,19.638,19.638,0,0,0,17.971-18.624V224.6C353.834,220.772,349.006,214.037,342.271,215.962Z" transform="translate(131.748 15.137)"/><path class="a" d="M309.752,107.267s4.725,17.662,14.02,15.188,16.494-5.412,15.927-11.236a22.339,22.339,0,0,0-1.306-4.931,19.6,19.6,0,0,0-22.628-12.559l-.618.155C311.418,94.879,306.161,101.254,309.752,107.267Z" transform="translate(120.661 -72.721)"/><path class="a" d="M156.425,141.937s4.725,17.662,14.02,15.171,16.477-5.395,15.927-11.219a23.4,23.4,0,0,0-1.306-4.948A19.638,19.638,0,0,0,162.421,128.4l-.619.137C158.091,129.532,152.817,135.923,156.425,141.937Z" transform="translate(10.55 -47.824)"/><path class="a" d="M115.682,170.708s-11.2,0-11.2,5.893.584,10.618,4.123,11.2a13.334,13.334,0,0,0,3.127,0,12.027,12.027,0,0,0,11.013-11.425,3.039,3.039,0,0,0,0-.378C122.709,173.646,119.754,169.522,115.682,170.708Z" transform="translate(-25.885 -17.268)"/><path class="a" d="M225.422,102.938s-11.2,0-11.2,5.893.584,10.618,4.123,11.2a13.47,13.47,0,0,0,3.144,0A12.027,12.027,0,0,0,232.5,108.625v-.4C232.5,105.876,229.546,101.752,225.422,102.938Z" transform="translate(52.921 -65.935)"/><path class="a" d="M365.442,244.638s-11.2,0-11.2,5.893.584,10.618,4.123,11.2a12.575,12.575,0,0,0,3.127,0A12.027,12.027,0,0,0,372.5,250.325a3.163,3.163,0,0,0,0-.4C372.521,247.576,369.566,243.452,365.442,244.638Z" transform="translate(153.471 35.822)"/><path class="a" d="M426.757,257.047s2.68,10.876,8.419,9.467,10.154-3.127,9.879-6.7a13.965,13.965,0,0,0-.739-3.041,12.027,12.027,0,0,0-13.745-7.955l-.378.086C427.926,249.47,424.627,253.319,426.757,257.047Z" transform="translate(205.052 38.807)"/><path class="a" d="M59.431,249.717s2.68,10.876,8.4,9.45,10.171-3.11,9.9-6.683a13.522,13.522,0,0,0-.739-3.041,12.027,12.027,0,0,0-13.745-7.955l-.378.086C60.582,242.14,57.283,245.972,59.431,249.717Z" transform="translate(-58.735 33.543)"/><path class="a" d="M73.85,255.031s1.237,5.017,3.883,4.364,4.69-1.443,4.553-3.093a6.357,6.357,0,0,0-.344-1.409,5.549,5.549,0,0,0-6.323-3.66h-.172a2.715,2.715,0,0,0-1.6,3.8Z" transform="translate(-48.086 40.634)"/><path class="a" d="M313.529,245.415s1.237,5.017,3.883,4.364,4.673-1.426,4.553-3.075a6.133,6.133,0,0,0-.344-1.409,5.532,5.532,0,0,0-6.323-3.66h-.172a2.7,2.7,0,0,0-1.6,3.78Z" transform="translate(124.031 33.739)"/><path class="a" d="M421.119,222.63s1.237,5.017,3.883,4.364,4.673-1.443,4.553-3.093a6.028,6.028,0,0,0-.344-1.392,5.549,5.549,0,0,0-6.323-3.677h-.172a2.715,2.715,0,0,0-1.6,3.8Z" transform="translate(201.292 17.368)"/><path class="a" d="M345.669,143.945s5.154,9.982,10.309,7.285,9.175-5.361,8.092-8.78a14.375,14.375,0,0,0-1.426-2.8,12.027,12.027,0,0,0-15.188-4.587l-.344.172C345.068,136.3,342.731,140.886,345.669,143.945Z" transform="translate(146.32 -43.492)"/><path class="a" d="M286.326,91.273s5.154,9.982,10.309,7.285,9.192-5.361,8.092-8.78a13.211,13.211,0,0,0-1.409-2.783,12.027,12.027,0,0,0-15.188-4.6l-.344.172C285.725,83.645,283.405,88.146,286.326,91.273Z" transform="translate(103.711 -81.313)"/><path class="a" d="M179,106.618s5.154,9.965,10.309,7.285,9.175-5.361,8.092-8.78a13.471,13.471,0,0,0-1.426-2.8,12.027,12.027,0,0,0-15.171-4.6l-.361.172C178.4,98.972,176.061,103.473,179,106.618Z" transform="translate(26.633 -70.302)"/><path class="a" d="M248.778,120.992s4.192-.567,3.9-2.766-.756-3.934-2.1-3.986a5.739,5.739,0,0,0-1.185.155,4.536,4.536,0,0,0-3.539,4.811s0,.1,0,.155a2.216,2.216,0,0,0,2.921,1.632Z" transform="translate(75.628 -57.668)"/><path class="a" d="M327.908,176.785s-9.484-15.618-17.714-10.635-14.295,9.81-12.13,15.24a21.893,21.893,0,0,0,2.629,4.381,19.621,19.621,0,0,0,25.239,5.7l.567-.309C329.781,189.156,333.045,181.561,327.908,176.785Z" transform="translate(112.813 -21.095)"/><path class="a" d="M118.581,236.857s-9.484-15.635-17.714-10.635-14.312,9.793-12.13,15.24a22.025,22.025,0,0,0,2.629,4.381,19.621,19.621,0,0,0,25.239,5.7l.567-.326C120.436,249.262,123.718,241.651,118.581,236.857Z" transform="translate(-37.511 22.04)"/><path class="a" d="M182.431,173.585s-9.484-15.618-17.714-10.635-14.312,9.81-12.13,15.24a21.565,21.565,0,0,0,2.629,4.381,19.621,19.621,0,0,0,25.239,5.7l.55-.326C184.3,185.956,187.568,178.344,182.431,173.585Z" transform="translate(8.34 -23.393)"/><path class="a" d="M407.008,184.225s-9.467-15.618-17.7-10.635S375,183.4,377.164,188.83a22.079,22.079,0,0,0,2.646,4.381,19.621,19.621,0,0,0,25.239,5.7l.55-.309C408.9,196.6,412.162,189,407.008,184.225Z" transform="translate(169.616 -15.752)"/><path class="a" d="M300.524,96.593S282.4,98.964,283.635,108.5s3.2,17.061,9.054,17.181a21.838,21.838,0,0,0,5.068-.653,19.621,19.621,0,0,0,15.463-20.789V103.6C312.6,99.875,306.95,93.827,300.524,96.593Z" transform="translate(102.725 -70.844)"/><path class="a" d="M460.781,229.6s-9.484-15.635-17.714-10.635-14.312,9.793-12.13,15.24a21.49,21.49,0,0,0,2.629,4.364,19.621,19.621,0,0,0,25.291,5.721l.567-.326C462.653,241.968,465.918,234.357,460.781,229.6Z" transform="translate(208.226 16.826)"/></g><g transform="translate(89.054 88.801)"><line class="c" x2="61.852" y2="38.95" transform="translate(511.327 315.376)"/><line class="c" x2="89.032" y2="38.091" transform="translate(484.163 272.956)"/><line class="c" x2="72.504" y2="31.029" transform="translate(390.286 232.787)"/><line class="c" x1="8.453" y2="3.385" transform="translate(0 289.072)"/><line class="c" x1="93.963" y2="37.764" transform="translate(20.48 246.48)"/><line class="c" x2="0.962" y2="74.325" transform="translate(313.023)"/><line class="c" x1="35.462" y2="57.797" transform="translate(343.33 18.487)"/><line class="c" x1="35.221" y2="35.221" transform="translate(348.227 58.673)"/><line class="c" x1="67.178" y2="46.87" transform="translate(363.879 105.715)"/><line class="c" x1="8.23" y2="5.756" transform="translate(439.768 93.895)"/><line class="c" x1="41.2" y1="6.872" transform="translate(400.612 186.621)"/><line class="c" x1="51.372" y1="8.573" transform="translate(453.598 195.452)"/><line class="c" x1="11.614" y1="1.941" transform="translate(524.006 207.204)"/><line class="c" x2="48.107" y2="16.442" transform="translate(375.837 196.655)"/><line class="c" x1="13.384" y2="4.536" transform="translate(213.252 201.844)"/><line class="c" x1="33.4" y2="11.34" transform="translate(237.546 186.81)"/><line class="c" x1="13.229" y2="1.563" transform="translate(127.175 190.143)"/><line class="c" x1="106.626" y2="12.645" transform="translate(152.585 176.055)"/><line class="c" x2="63.639" y2="28.125" transform="translate(179.921 106.849)"/><line class="c" x2="8.384" y2="3.694" transform="translate(159.441 97.812)"/><line class="c" x2="48.897" y2="14.673" transform="translate(207.376 134.975)"/><line class="c" x2="29.345" y2="37.163" transform="translate(203.459 41.08)"/><line class="c" x2="10.755" y2="11.752" transform="translate(239.659 87.039)"/><line class="c" x1="9.948" y2="6.271" transform="translate(124.237 304.776)"/><line class="c" x1="69.137" y2="43.588" transform="translate(145.077 254.315)"/><line class="c" x1="26.407" y2="13.693" transform="translate(202.479 226.928)"/><line class="c" x1="45.959" y1="6.855" transform="translate(82.177 133.995)"/><line class="c" x2="57.265" y2="17.181" transform="translate(503.613 239.779)"/><line class="c" y1="12.611" x2="38.95" transform="translate(498.716 125.233)"/></g><g transform="translate(56.316 126.391)"><path class="d" d="M412.45,179.227H228.131a4.278,4.278,0,0,1-2.921-1.151L152.792,110.76a4.3,4.3,0,1,1,5.859-6.288l71.164,66.164H410.766l71.181-66.147a4.3,4.3,0,0,1,5.842,6.288l-72.4,67.316a4.33,4.33,0,0,1-2.938,1.134Z" transform="translate(21.107 -103.319)"/><path class="d" d="M182.277,299.729,168.7,241.416a25.772,25.772,0,0,0-16.442-18.642l-95.6-33.537a4.244,4.244,0,0,0-5.446,2.783,4.484,4.484,0,0,0,2.7,5.567l95.6,33.555a16.975,16.975,0,0,1,10.841,12.284l13.573,58.313a17.989,17.989,0,0,1-1.151,11.494l-24.758,53.622,12.027-5.567,20.411-44.207a27.129,27.129,0,0,0,1.821-17.353Z" transform="translate(-51.005 -41.787)"/><path class="d" d="M508.594,192.018a4.261,4.261,0,0,0-5.447-2.783l-95.6,33.538a25.772,25.772,0,0,0-16.442,18.642l-13.59,58.313a27.129,27.129,0,0,0,1.718,17.422l21.648,46.87,11.649,5.378a4.569,4.569,0,0,0-.412-1.632L386.986,313.3a17.869,17.869,0,0,1-1.168-11.494l13.659-58.313a16.975,16.975,0,0,1,10.841-12.285L505.9,197.585a4.484,4.484,0,0,0,2.7-5.567Z" transform="translate(182.954 -41.785)"/><path class="d" d="M385.675,329.481H193.9l28.778-76.971H356.914Z" transform="translate(51.609 3.817)"/><path class="e" d="M358.414,318.543H205.09L228.1,257h107.33Z" transform="translate(59.645 7.041)"/><path class="e" d="M288.78,252.51,336.956,299v48.88l-19.415-18.4Z" transform="translate(119.744 3.817)"/><path class="e" d="M230.766,252.51,182.59,299v48.88L202,329.481Z" transform="translate(43.487 3.817)"/><path class="d" d="M217.742,279.57,133.64,295.2v49.241l84.1-16Z" transform="translate(8.336 23.249)"/><path class="d" d="M316.85,279.57l84.1,15.635v49.241l-84.1-16Z" transform="translate(139.901 23.249)"/><path class="f" d="M283.282,254.63S167.464,302.875,66.13,356" transform="translate(-40.144 5.339)"/><path class="f" d="M310.18,254.63S426,302.875,527.332,356" transform="translate(135.111 5.339)"/><circle class="g" cx="8.47" cy="8.47" r="8.47" transform="translate(145.876 320.653)"/><circle class="g" cx="8.47" cy="8.47" r="8.47" transform="translate(175.153 316.289)"/><path class="g" d="M140.909,316.295l-3.849.722v-8.5l3.849-.722Z" transform="translate(10.792 43.514)"/><path class="g" d="M143.949,318.228l-3.849.739V304.432l3.849-.722Z" transform="translate(12.975 40.584)"/><path class="g" d="M146.979,313.866l-3.849.722v-5.447l3.849-.722Z" transform="translate(15.151 43.967)"/><path class="g" d="M150.019,315.843l-3.849.739V305l3.849-.722Z" transform="translate(17.334 40.994)"/><path class="g" d="M153.041,313.995l-3.831.722v-8.5l3.831-.722Z" transform="translate(19.517 41.862)"/><path class="g" d="M156.089,311.354l-3.849.739V308.5l3.849-.722Z" transform="translate(21.693 43.507)"/><path class="g" d="M159.111,311.279,155.28,312v-4.759l3.831-.722Z" transform="translate(23.876 42.602)"/><path class="g" d="M162.141,312.265,158.31,313v-8.522l3.831-.722Z" transform="translate(26.052 40.62)"/><path class="g" d="M165.189,314.215l-3.849.722V300.419l3.849-.739Z" transform="translate(28.228 37.69)"/><path class="g" d="M168.211,309.836l-3.831.739v-5.464l3.831-.722Z" transform="translate(30.411 41.073)"/><path class="g" d="M171.259,311.823l-3.849.722V300.982l3.849-.722Z" transform="translate(32.586 38.107)"/><path class="g" d="M174.3,309.965l-3.849.739v-8.522l3.849-.722Z" transform="translate(34.77 38.968)"/><path class="g" d="M177.329,307.334l-3.849.722v-3.574l3.849-.722Z" transform="translate(36.945 40.62)"/><path class="g" d="M180.351,307.249l-3.831.739v-4.759l3.831-.739Z" transform="translate(39.128 39.708)"/><path class="g" d="M352.8,298.42a8.47,8.47,0,1,0,8.47-8.47,8.47,8.47,0,0,0-8.47,8.47Z" transform="translate(165.717 30.703)"/><circle class="g" cx="8.47" cy="8.47" r="8.47" transform="translate(489.24 316.289)"/><path class="g" d="M359.26,316.295l3.849.722v-8.5l-3.849-.722Z" transform="translate(170.356 43.514)"/><path class="g" d="M356.23,318.228l3.849.739V304.432l-3.849-.722Z" transform="translate(168.18 40.584)"/><path class="g" d="M353.19,313.866l3.849.722v-5.447l-3.849-.722Z" transform="translate(165.997 43.967)"/><path class="g" d="M350.16,315.843l3.831.739V305l-3.831-.722Z" transform="translate(163.821 40.994)"/><path class="g" d="M347.12,313.995l3.849.722v-8.5l-3.849-.722Z" transform="translate(161.638 41.862)"/><path class="g" d="M344.09,311.354l3.831.739V308.5l-3.831-.722Z" transform="translate(159.462 43.507)"/><path class="g" d="M341.05,311.279,344.9,312v-4.759l-3.849-.722Z" transform="translate(157.279 42.602)"/><path class="g" d="M338.02,312.265l3.849.739v-8.522l-3.849-.722Z" transform="translate(155.103 40.62)"/><path class="g" d="M334.99,314.215l3.831.722V300.419l-3.831-.739Z" transform="translate(152.927 37.69)"/><path class="g" d="M331.95,309.836l3.849.739v-5.464l-3.849-.722Z" transform="translate(150.744 41.073)"/><path class="g" d="M328.92,311.823l3.831.722V300.982l-3.831-.722Z" transform="translate(148.569 38.107)"/><path class="g" d="M325.88,309.965l3.849.739v-8.522l-3.849-.722Z" transform="translate(146.385 38.968)"/><path class="g" d="M322.85,307.334l3.831.722v-3.574l-3.831-.722Z" transform="translate(144.21 40.62)"/><path class="g" d="M319.81,307.249l3.849.739v-4.759l-3.849-.739Z" transform="translate(142.027 39.708)"/><line class="f" x2="21.803" y2="95.647" transform="translate(540.852 367.695)"/><line class="f" x1="21.803" y2="95.647" transform="translate(119.881 367.695)"/></g><g transform="translate(291.894 632.686)"><ellipse class="g" cx="88.277" cy="43.812" rx="88.277" ry="43.812"/><ellipse class="h" cx="88.277" cy="43.812" rx="88.277" ry="43.812"/></g><g transform="translate(306.262 208.082)"><path class="i" d="M226.9,410.25s-8.591,9.484-12.456,14.226-12.147,9.192-7.405,14.518,14.518,2.972,20.738-2.371,8.591-11.254,10.309-11.546,5.927,0,6.529-4.742.876-8.9.876-8.9S234.9,414.975,226.9,410.25Z" transform="translate(-189.929 35.401)"/><path class="i" d="M263.025,416.193s-3.866,13.934-7.422,20.446-3.849,12.748,2.972,12.748,14.226-4.141,18.676-14.518a37.8,37.8,0,0,0,1.718-21.339S276.066,420.643,263.025,416.193Z" transform="translate(-155.803 37.756)"/><path class="e" d="M228.546,273.67s12.027,8.591,34.362,8.591,50.976-3.436,50.976-3.436,3.436,32.06,0,62.419-5.154,62.419-1.718,75.03-2.869,48.674-2.869,62.419-1.151,29.208-1.718,33.8-9.742,6.872-14.9,5.721l-5.154-1.151s-1.718-56.7-5.721-75.013-8.024-69.309-10.876-80.184-6.872-27.49-6.872-27.49l-6.872-3.436s-6.872,49.825-6.872,67.006,2.852,44.1-1.151,61.852-9.742,48.107-9.742,48.107-6.872,2.285-11.443,1.151a61.852,61.852,0,0,1-10.309-4.02s4.57-37.8,5.154-53.261-4.02-84.187-3.436-108.808S228.546,273.67,228.546,273.67Z" transform="translate(-181.268 -62.679)"/><path class="d" d="M263.14,195.987s-7.525,1.718-11.6,7.3-9.879,16.958-10.532,24.483-2.354,41.664-4.931,54.327-9.45,57.78-9.45,57.78,17.387,6.649,33.709,6.649,18.264-1.495,18.264-1.495-5.378-71.3-3.866-90.854,7.732-45.307,5.584-51.114S268.93,194.045,263.14,195.987Z" transform="translate(-174.834 -118.871)"/><path class="j" d="M274.086,202.779a100.477,100.477,0,0,0-7.731,20.188c-3.436,12.456-4.725,44.671-8.591,68.518s-16.116,87.83-16.116,87.83l-15.033-12.886s9.243-56.9,11.6-78.81,3.23-30.926,3.23-30.926-8.161,17.181-12.68,26.631-14.381,22.971-20.188,26.407-9.226-4.072-7.508-13.951,23.83-53.261,27.7-62.934,8.78-22.335,11.391-24.26c6.116-4.759,24.913-7.3,27.06-8.161S277.092,193.33,274.086,202.779Z" transform="translate(-193.511 -117.296)"/><path class="f" d="M226.125,218.53l.567,23.143-5.532-11.425" transform="translate(-178.762 -102.275)"/><path class="d" d="M210.292,245.32s8.5,1.22,11.254,8.591a16.528,16.528,0,0,1-2.44,16.734c-3.041,4.244-4.553,9.415-14.277,8.814s-8.831-9.123-7.611-14.9S199.949,249.924,210.292,245.32Z" transform="translate(-196.483 -83.037)"/><path class="j" d="M260.322,203.036s-6.872,25.119-8.384,43.159-2.577,46.819-2.148,66.577,2.577,71.1,2.577,71.1,17.834-5.584,30.72-11.168a130.436,130.436,0,0,0,24.689-14.827s-7.3-41.87-9.879-58.845-4.5-35.857-4.5-35.857,4.072-27.919,5.154-38.228,1.924-15.893-1.082-16.975-22.542-6.013-27.266-7.731-9.45-3.866-9.45-3.866a45.028,45.028,0,0,1-.43,6.666Z" transform="translate(-158.271 -118.188)"/><path class="d" d="M253.177,194.488a10.858,10.858,0,0,0-7.3,4.725c-3.436,4.5-9.45,15.463-11.391,18.47s-2.354,3.866-2.354,3.866l12.456-.859s4.3-11.391,9.02-15.893,11.8-3.66,14.174-1.082a5.154,5.154,0,0,1,3.642,4.725,92.248,92.248,0,0,1-1.495,11.6l13.522,2.148a74.566,74.566,0,0,0-3.007-19.105C277.66,194.918,265.41,191.258,253.177,194.488Z" transform="translate(-170.884 -120.379)"/><path class="d" d="M243.574,194.765s.636,12.68-.859,19.758,5.584,12.886,11.168,10.532,11.168-7.3,11.6-13.315,2.148-27.49,2.148-27.49-13.315,8.161-17.834,9.226a9.312,9.312,0,0,1-6.872-.43Z" transform="translate(-163.429 -126.892)"/><path class="d" d="M241.937,164.17s-3.264,19.483-3.849,31.235,4.622,26.218,14.655,26.218,23.5-18.5,23.5-18.5,12.336-14.466,14.467-25.772-14.26-22.748-24.672-24.861S247.349,151.456,241.937,164.17Z" transform="translate(-166.637 -150.315)"/><path class="e" d="M273.633,178.689a5.79,5.79,0,0,1-1.443,5.842c-1.8,1.907-4.45,5.154-3.66,7.577.378,1.151,9.278,1.254,14.449-3.436,6.752-6.168,3.866-26.236-8.865-33.555s-25.188-3.986-26.339,1.031,24.414,19.793,25.565,21.923a4.437,4.437,0,0,1,.292.618Z" transform="translate(-159.676 -150.865)"/><path class="d" d="M266.4,158.96l8.264,22.834-3.093,2.165-9.879-3.711Z" transform="translate(-149.657 -145.053)"/><path class="d" d="M290.3,167.092,288.113,159a6.409,6.409,0,0,1-1.924,3.814c-3.264,2.886-10.79,2.508-21.2-1.357s-13.882,2.13-22.748,1.924c-5.549-.12-8.3-2.491-9.587-4.261h-1.2l2.508,12.336h.155a7.13,7.13,0,0,0,3.728,4.622c6.168,3.282,10.412.962,16.013,0s12.13,2.113,12.13,2.113c8.109,4.244,13.281,4,19.088.962C288.371,177.384,292.529,172.3,290.3,167.092Z" transform="translate(-171.373 -145.024)"/><path class="e" d="M263.395,172.831s-6.546-3.093-12.147-2.13-9.828,3.282-16,0-6.357-12.9,9.261-17.542,31.441-1.6,38.743,3.436c9.45,6.563,3.66,14.844-.773,17.181C276.607,176.868,271.419,177.057,263.395,172.831Z" transform="translate(-171.447 -150.866)"/><path class="f" d="M247.743,169l-3.282,2.319c-1.924,1.34-1.529,1.718-.378,3.075a12.955,12.955,0,0,0,4.055,2.508" transform="translate(-162.993 -137.843)"/><path class="f" d="M242.33,176.344s2.319,2.319,10.034,2.319,9.639-2.9,9.639-2.9" transform="translate(-163.559 -132.989)"/><path class="f" d="M243.79,176.89s1.357,5.584,3.66,5.773,6.168-4.811,6.168-4.811S247.845,179,243.79,176.89Z" transform="translate(-162.511 -132.177)"/><path class="f" d="M267.2,231.9s-2.715-4.948.893-18.9" transform="translate(-146.404 -106.246)"/><path class="j" d="M272.595,218.877s-4.862,16.322-4.57,24.913-.859,26.906-.859,26.906a18.006,18.006,0,0,0-.292,12.027c2.285,5.738,18.9,14.037,25.479,4.3s6.305-56.973,4.02-67.573-7.165-15.755-12.319-16.614" transform="translate(-146.576 -113.55)"/><path class="f" d="M285.143,239.168c-16.666,2.251-17.181,9-17.181,9s-3.161-8.109,8.591-20.72" transform="translate(-145.431 -95.87)"/><path class="d" d="M265.418,243.008a42.953,42.953,0,0,1,19.174-4c10.034.567,16.614,13.178,16.614,18.9A12.027,12.027,0,0,1,290.9,269.072c-5.154.567-14.9,2.577-21.769-6.58S262.84,252.458,265.418,243.008Z" transform="translate(-148.264 -87.581)"/><path class="f" d="M207.17,225.405s2.285-8.316,4.862-9.742,10.876-2.577,10.017-.292-4.862,2.01-5.721,2.3-2.285,5.429-2.577,6.288S209.747,227.69,207.17,225.405Z" transform="translate(-188.808 -105.474)"/><path class="e" d="M239.683,214s-20.342.292-24.054,1.151-2.01,7.147-1.151,10.876,2.869,6.305,4.3,6.305,0-4.02,2.285-4.02,14.9-.567,16.906.859,2.852,4.3,4.3,3.728,4-7.165,3.436-12.886A6.512,6.512,0,0,0,239.683,214Z" transform="translate(-184.382 -105.528)"/><path class="d" d="M212.753,220.795s9.725-2.577,12.594-2.285a4.914,4.914,0,0,1,4.862,4c.859,2.577-2.852,1.718-2.852,1.718l-3.436-.859-3.161.859,5.154,2.268a5.154,5.154,0,0,1,3.058,5.464,2.354,2.354,0,0,1-1.563,2.01,85.581,85.581,0,0,1-8.591,1.718s1.718,4.587-.584,6.58a10.171,10.171,0,0,1-3.436,2.3s1.151,23.469.292,32.352-3.436,17.181-8.591,18.9-9.45-1.718-8.024-12.319,10.893-42.369,11.168-46.664S212.461,223.1,212.753,220.795Z" transform="translate(-195.251 -102.306)"/><path class="f" d="M207.83,225.257s8.883-3.161,13.178,0" transform="translate(-188.334 -98.453)"/><path class="f" d="M208,227.713s9.432-2.886,13.882-1.151" transform="translate(-188.212 -96.906)"/><path class="f" d="M213.721,222.077a19.637,19.637,0,0,0-5.721-.567" transform="translate(-188.212 -100.152)"/><path class="d" d="M324.683,275.7s-2.577-6.013-14.02-12.027c-9.931-5.154-32.936-14.9-41.819-22.335A135.735,135.735,0,0,1,248.519,219c-2.285-3.436-7.439-4.862-10.017-5.721s-10.893.567-12.319,2.577.859,3.436,3.436,1.993,5.446-.275,6.872.292a29.62,29.62,0,0,1,5.154,4.587s-8.78-1.856-13.453,1.134c-1.718,1.134-.292,5.154,1.718,8.024s6.013,10.309,8.006,10.6a16.546,16.546,0,0,0,6.013-1.443,53.688,53.688,0,0,0,7.732,4.3,90.931,90.931,0,0,0,9.742,1.151,233.248,233.248,0,0,0,23.487,23.487c8.865,7.233,15.085,12.594,23.194,16.322C314.958,289.44,328.978,287.43,324.683,275.7Z" transform="translate(-175.47 -106.231)"/><line class="f" x2="4.828" transform="translate(63.943 133.591)"/><path class="f" d="M228.17,226.391s.859-5.721,3.711-5.721,10.034.275,10.034.275" transform="translate(-173.728 -100.738)"/><path class="f" d="M230.09,227.782s1.271-3.282,2.715-3.282h10.584" transform="translate(-172.349 -97.988)"/><path class="d" d="M218.016,403.593s-2.079,12.731-.893,14.81,8.9,3.557,13.642,3.557,6.872.292,8.3-2.371,2.663-9.484,3.247-12.147-2.663-1.718-7.989-1.718-13.934-3.849-13.934-3.849S219.2,401.222,218.016,403.593Z" transform="translate(-181.923 29.327)"/><path class="d" d="M257.46,408.8s-.876,8.883.309,11.855,7.7,4.433,11.855,4.141,7.7-1.186,8.883-3.557,1.718-9.776,1.718-11.563-5.343-.292-10.979-.292S259.247,406.121,257.46,408.8Z" transform="translate(-152.918 33.602)"/><path class="c" d="M238.56,284.75l.962,22.095,5.446,1.924.962-10.566" transform="translate(-166.267 -54.722)"/><line class="c" x1="10.669" y1="4.278" transform="translate(65.249 263.978)"/><path class="d" d="M263.139,177.385s9.639-8.487,11.185-1.924-7.714,10.79-10.79,11.168-2.319-2.886-2.319-2.886" transform="translate(-150.057 -134.992)"/></g></g></svg>